<?xml version="1.0" encoding="iso-8859-1"?>
<!-- Generator: Adobe Illustrator 19.0.0, SVG Export Plug-In . SVG Version: 6.00 Build 0)  -->
<svg version="1.1" id="Capa_1" xmlns="http://www.w3.org/2000/svg" xmlns:xlink="http://www.w3.org/1999/xlink" x="0px" y="0px"
	 viewBox="0 0 480 480" style="enable-background:new 0 0 480 480;" xml:space="preserve">
<g>
	<g>
		<path d="M136,136v208h208V136H136z M328,328H152V152h176V328z"/>
	</g>
</g>
<g>
	<g>
		<path d="M480,104V88h-56V56h-32V0h-16v56h-32V0h-16v56h-32V0h-16v56h-32V0h-16v56h-32V0h-16v56h-32V0h-16v56h-32V0H88v56H56v32H0
			v16h56v32H0v16h56v32H0v16h56v32H0v16h56v32H0v16h56v32H0v16h56v32H0v16h56v32h32v56h16v-56h32v56h16v-56h32v56h16v-56h32v56h16
			v-56h32v56h16v-56h32v56h16v-56h32v56h16v-56h32v-32h56v-16h-56v-32h56v-16h-56v-32h56v-16h-56v-32h56v-16h-56v-32h56v-16h-56v-32
			h56v-16h-56v-32H480z M408,408H72V72h336V408z"/>
	</g>
</g>
<g>
	<g>
		<path d="M112,112v256h256V112H112z M352,352H128V128h224V352z"/>
	</g>
</g>
<g>
	<g>
		<rect x="192" y="256" width="96" height="16"/>
	</g>
</g>
<g>
	<g>
		<rect x="192" y="208" width="96" height="16"/>
	</g>
</g>
<g>
</g>
<g>
</g>
<g>
</g>
<g>
</g>
<g>
</g>
<g>
</g>
<g>
</g>
<g>
</g>
<g>
</g>
<g>
</g>
<g>
</g>
<g>
</g>
<g>
</g>
<g>
</g>
<g>
</g>
</svg>
