<?xml version="1.0" encoding="iso-8859-1"?>
<!-- Generator: Adobe Illustrator 19.0.0, SVG Export Plug-In . SVG Version: 6.00 Build 0)  -->
<svg version="1.1" id="Capa_1" xmlns="http://www.w3.org/2000/svg" xmlns:xlink="http://www.w3.org/1999/xlink" x="0px" y="0px"
	 viewBox="0 0 480 480" style="enable-background:new 0 0 480 480;" xml:space="preserve">
<g>
	<g>
		<g>
			<path d="M352,152c-48.601,0-88,39.399-88,88c0.057,48.577,39.423,87.943,88,88c48.601,0,88-39.399,88-88
				C440,191.399,400.601,152,352,152z M366.856,171.816l-1.24-2.488c12.509,2.425,24.147,8.135,33.72,16.544l-3.8,11.352
				c-2.723,8.169-9.613,14.253-18.056,15.944l-6.4,1.288c-1.889-1.441-3.934-2.664-6.096-3.648
				C372.338,199.018,373.047,184.256,366.856,171.816z M347.2,168.248l5.336,10.72c3.853,7.704,3.282,16.881-1.496,24.048
				l-3.632,5.448c-2.346,0.323-4.648,0.908-6.864,1.744c-3.138-13.546-13.076-24.496-26.256-28.928l-2.64-0.88
				C322.204,173.254,334.478,169.059,347.2,168.248z M297.872,192.68l11.352,3.784c8.169,2.723,14.253,9.613,15.944,18.056
				l1.288,6.4c-1.441,1.889-2.664,3.934-3.648,6.096c-11.794-7.342-26.549-8.051-38.992-1.872l-2.488,1.24
				C283.752,213.88,289.463,202.246,297.872,192.68z M293.288,277.712l-0.88,2.64c-7.147-10.547-11.345-22.813-12.16-35.528
				l10.72-5.36c7.704-3.853,16.881-3.282,24.048,1.496l5.448,3.632c0.323,2.346,0.908,4.648,1.744,6.864
				C308.66,254.586,297.709,264.528,293.288,277.712z M337.152,308.184l1.24,2.488c-12.509-2.425-24.147-8.135-33.72-16.544
				l3.792-11.352c2.723-8.169,9.613-14.253,18.056-15.944l6.408-1.288c1.889,1.441,3.934,2.664,6.096,3.648
				C331.67,280.982,330.961,295.744,337.152,308.184z M336,240c0-8.837,7.163-16,16-16s16,7.163,16,16s-7.163,16-16,16
				S336,248.837,336,240z M356.8,311.752l-5.336-10.72c-3.853-7.704-3.282-16.881,1.496-24.048l3.632-5.448
				c2.346-0.323,4.648-0.908,6.864-1.744c3.138,13.546,13.076,24.496,26.256,28.928l2.64,0.88
				C381.796,306.746,369.522,310.941,356.8,311.752z M406.13,287.318l-11.346-3.782c-8.169-2.723-14.253-9.613-15.944-18.056
				l-1.288-6.4c1.443-1.892,2.669-3.939,3.656-6.104c11.773,7.397,26.554,8.11,38.984,1.88l2.488-1.24
				C420.254,266.12,414.541,277.753,406.13,287.318z M413.032,240.536c-7.707,3.838-16.876,3.267-24.048-1.496l-5.448-3.632
				c-0.323-2.346-0.908-4.648-1.744-6.864c13.548-3.13,24.499-13.072,28.92-26.256l0.88-2.64
				c7.147,10.547,11.345,22.813,12.16,35.528L413.032,240.536z"/>
			<path d="M160,152c-48.601,0-88,39.399-88,88c0.057,48.577,39.423,87.943,88,88c48.601,0,88-39.399,88-88
				C248,191.399,208.601,152,160,152z M174.856,171.816l-1.24-2.488c12.509,2.425,24.147,8.135,33.72,16.544l-3.8,11.352
				c-2.723,8.169-9.613,14.253-18.056,15.944l-6.4,1.288c-1.889-1.441-3.934-2.664-6.096-3.648
				C180.338,199.018,181.047,184.256,174.856,171.816z M155.2,168.248l5.336,10.72c3.853,7.704,3.282,16.881-1.496,24.048
				l-3.632,5.448c-2.346,0.323-4.648,0.908-6.864,1.744c-3.138-13.546-13.076-24.496-26.256-28.928l-2.64-0.88
				C130.204,173.254,142.478,169.059,155.2,168.248z M105.872,192.68l11.352,3.784c8.169,2.723,14.253,9.613,15.944,18.056
				l1.288,6.4c-1.441,1.889-2.664,3.934-3.648,6.096c-11.794-7.342-26.549-8.051-38.992-1.872l-2.488,1.24
				C91.752,213.88,97.463,202.246,105.872,192.68z M101.288,277.712l-0.88,2.64c-7.147-10.547-11.345-22.813-12.16-35.528
				l10.72-5.36c7.704-3.853,16.881-3.282,24.048,1.496l5.448,3.632c0.323,2.346,0.908,4.648,1.744,6.864
				C116.66,254.586,105.709,264.528,101.288,277.712z M145.152,308.184l1.24,2.488c-12.509-2.425-24.147-8.135-33.72-16.544
				l3.792-11.352c2.723-8.169,9.613-14.253,18.056-15.944l6.408-1.288c1.889,1.441,3.934,2.664,6.096,3.648
				C139.67,280.982,138.961,295.744,145.152,308.184z M144,240c0-8.837,7.163-16,16-16s16,7.163,16,16s-7.163,16-16,16
				S144,248.837,144,240z M164.8,311.752l-5.336-10.72c-3.853-7.704-3.282-16.881,1.496-24.048l3.632-5.448
				c2.346-0.323,4.648-0.908,6.864-1.744c3.138,13.546,13.076,24.496,26.256,28.928l2.64,0.88
				C189.796,306.746,177.522,310.941,164.8,311.752z M214.13,287.318l-11.346-3.782c-8.169-2.723-14.253-9.613-15.944-18.056
				l-1.288-6.4c1.443-1.892,2.669-3.939,3.656-6.104c11.773,7.397,26.554,8.11,38.984,1.88l2.488-1.24
				C228.254,266.12,222.541,277.753,214.13,287.318z M221.032,240.536c-7.707,3.838-16.876,3.267-24.048-1.496l-5.448-3.632
				c-0.323-2.346-0.908-4.648-1.744-6.864c13.548-3.13,24.499-13.072,28.92-26.256l0.88-2.64
				c7.147,10.547,11.345,22.813,12.16,35.528L221.032,240.536z"/>
			<path d="M440,96H48V80c0-13.255-10.745-24-24-24H0v16h24c4.418,0,8,3.582,8,8v136H16v16h16v8H8v96h24v8H16v16h16v64h16v-40h32v32
				h80v-32h16v32h176v-32h88c22.08-0.026,39.974-17.92,40-40V136C479.974,113.92,462.08,96.026,440,96z M32,320h-8v-64h8V320z
				 M112,400H96v-16h16V400z M144,400h-16v-16h16V400z M208,400h-16v-16h16V400z M240,400h-16v-16h16V400z M272,400h-16v-16h16V400z
				 M304,400h-16v-16h16V400z M336,400h-16v-16h16V400z M464,344c0,13.255-10.745,24-24,24H48v-48h28.688l32,32h101.976l32-24
				h26.672l32,24h101.352l45.016-40H464V344z M464,296h-22.4l-45.016,40h-89.92l-32-24h-37.328l-32,24h-90.024l-32-32H48V176h35.312
				l32-32h90.024l32,24h37.328l32-24h89.944l44.992,40H464V296z M464,168h-16.296l-45.016-40H301.336l-32,24h-26.672l-32-24H108.688
				l-32,32H48v-48h392c13.255,0,24,10.745,24,24V168z"/>
		</g>
	</g>
</g>
<g>
</g>
<g>
</g>
<g>
</g>
<g>
</g>
<g>
</g>
<g>
</g>
<g>
</g>
<g>
</g>
<g>
</g>
<g>
</g>
<g>
</g>
<g>
</g>
<g>
</g>
<g>
</g>
<g>
</g>
</svg>
