<?xml version="1.0" encoding="iso-8859-1"?>
<!-- Generator: Adobe Illustrator 19.0.0, SVG Export Plug-In . SVG Version: 6.00 Build 0)  -->
<svg version="1.1" id="Capa_1" xmlns="http://www.w3.org/2000/svg" xmlns:xlink="http://www.w3.org/1999/xlink" x="0px" y="0px"
	 viewBox="0 0 480 480" style="enable-background:new 0 0 480 480;" xml:space="preserve">
<g>
	<g>
		<path d="M384,0H96C82.745,0,72,10.745,72,24v432c0,13.255,10.745,24,24,24h288c13.255,0,24-10.745,24-24V24
			C408,10.745,397.255,0,384,0z M392,456c0,4.418-3.582,8-8,8H96c-4.418,0-8-3.582-8-8V24c0-4.418,3.582-8,8-8h288
			c4.418,0,8,3.582,8,8V456z"/>
	</g>
</g>
<g>
	<g>
		<path d="M304.039,47.999C284.331,37.486,262.337,31.991,240,32c-75.084-0.025-135.973,60.822-135.998,135.906
			c-0.008,22.333,5.487,44.325,15.998,64.03V360c0.035,30.913,25.087,55.965,56,56h128c30.913-0.035,55.965-25.087,56-56V231.928
			C395.337,165.684,370.283,83.336,304.039,47.999z M304,400H176c-22.08-0.026-39.974-17.92-40-40V255.632
			c0.08,0.096,0.176,0.184,0.264,0.28c2.816,3.32,5.816,6.456,8.912,9.472c0.664,0.64,1.32,1.272,1.992,1.904
			c3.144,2.928,6.4,5.736,9.768,8.344c0.488,0.368,0.984,0.712,1.472,1.072c3.2,2.411,6.509,4.672,9.928,6.784
			c0.568,0.352,1.12,0.728,1.696,1.072c3.648,2.192,7.416,4.184,11.256,6.024c0.8,0.392,1.648,0.8,2.472,1.144
			c3.936,1.792,7.928,3.448,12,4.856c0.36,0.128,0.728,0.216,1.088,0.336c3.904,1.312,7.888,2.4,11.912,3.368
			c0.8,0.184,1.6,0.392,2.344,0.56c4.192,0.912,8.437,1.624,12.736,2.136c0.88,0.104,1.76,0.176,2.64,0.264
			c8.969,1.003,18.023,1.003,26.992,0c0.88-0.088,1.76-0.16,2.64-0.264c4.299-0.533,8.544-1.245,12.736-2.136
			c0.8-0.168,1.552-0.376,2.336-0.56c2.112-0.496,4.216-1.016,6.288-1.6c0.776,2.197,1.71,4.336,2.792,6.4
			c8.735,15.363,28.271,20.736,43.635,12.001s20.736-28.271,12.001-43.635c-0.07-0.123-0.14-0.245-0.212-0.366
			c-1.109-1.758-2.339-3.436-3.68-5.024c0.272-0.248,0.528-0.512,0.8-0.76c0.672-0.632,1.328-1.264,1.992-1.904
			c3.096-3.016,6.096-6.152,8.912-9.464c0.08-0.104,0.176-0.184,0.264-0.288L344,360C343.974,382.08,326.08,399.974,304,400z
			 M298.696,290.584c3.848-1.848,7.616-3.84,11.272-6.032c0.568-0.344,1.112-0.72,1.68-1.072c2.741-1.701,5.424-3.501,8.048-5.4
			c0.787,0.943,1.506,1.94,2.152,2.984c4.368,7.682,1.681,17.45-6,21.817c-7.61,4.327-17.284,1.735-21.711-5.817
			c-0.616-1.181-1.151-2.402-1.6-3.656c1.256-0.528,2.48-1.12,3.72-1.688c0.816-0.368,1.632-0.736,2.448-1.128L298.696,290.584z
			 M287.536,278.112c-3.84-12.824-8.544-30.176-12.84-46.728c12.28,12.096,25.056,24.944,34.28,34.728
			C302.261,270.838,295.076,274.86,287.536,278.112z M345.016,226.136l-0.024-0.024c-6.212,11.17-14.168,21.276-23.568,29.936
			c-18.448-19.808-48.264-48.576-55.896-55.896c-3.191-3.056-8.255-2.947-11.311,0.244c-1.892,1.975-2.643,4.78-1.993,7.436
			c2.504,10.176,12.352,49.752,20.248,75.656c-39.416,11.104-81.773,1.32-112.328-25.944c-1.456-1.304-2.856-2.672-4.248-4.04
			c-0.56-0.552-1.152-1.064-1.696-1.6c-7.526-7.69-13.984-16.357-19.2-25.768c-32.077-57.994-11.067-131.011,46.928-163.088
			c57.994-32.077,131.011-11.067,163.088,46.928C365.005,146.116,365.005,189.996,345.016,226.136z"/>
	</g>
</g>
<g>
	<g>
		<path d="M240,64c-57.41,0.066-103.934,46.59-104,104c0,4.418,3.582,8,8,8s8-3.582,8-8c0.057-48.577,39.423-87.943,88-88
			c4.418,0,8-3.582,8-8S244.418,64,240,64z"/>
	</g>
</g>
<g>
	<g>
		<path d="M240,144c-13.255,0-24,10.745-24,24s10.745,24,24,24s24-10.745,24-24S253.255,144,240,144z M240,176c-4.418,0-8-3.582-8-8
			s3.582-8,8-8s8,3.582,8,8S244.418,176,240,176z"/>
	</g>
</g>
<g>
	<g>
		<circle cx="120" cy="48" r="16"/>
	</g>
</g>
<g>
	<g>
		<circle cx="360" cy="48" r="16"/>
	</g>
</g>
<g>
	<g>
		<circle cx="120" cy="432" r="16"/>
	</g>
</g>
<g>
	<g>
		<circle cx="360" cy="432" r="16"/>
	</g>
</g>
<g>
</g>
<g>
</g>
<g>
</g>
<g>
</g>
<g>
</g>
<g>
</g>
<g>
</g>
<g>
</g>
<g>
</g>
<g>
</g>
<g>
</g>
<g>
</g>
<g>
</g>
<g>
</g>
<g>
</g>
</svg>
