<svg xmlns="http://www.w3.org/2000/svg" id="fi_6005673" viewBox="0 0 60 60" width="512" height="512"><path d="M25.375,20.924a4.648,4.648,0,0,0-4.491.143,1.824,1.824,0,0,0-.869,1.788,4.6,4.6,0,0,0,2.61,3.631,4.646,4.646,0,0,0,4.493-.144,1.827,1.827,0,0,0,.867-1.788A4.6,4.6,0,0,0,25.375,20.924ZM23.51,24.692a2.609,2.609,0,0,1-1.493-1.969,2.773,2.773,0,0,1,3.966,1.964A2.6,2.6,0,0,1,23.51,24.692Z"></path><path d="M41.475,10.5,30,15.9,18.521,10.5a5.3,5.3,0,0,0-6.815,2.163,5.276,5.276,0,0,0,1.778,7.113l2.838,1.754-2.2,4.045a3.6,3.6,0,0,0,.371,4.032l4.951,6.074-.163.814a2.991,2.991,0,0,0,1.278,3.085l1.381.921a3.047,3.047,0,0,0,.744.356l.227,2.3a2.987,2.987,0,0,0,1.321,2.2l1.709,1.14a3,3,0,0,0,1.66.5h4.8a2.994,2.994,0,0,0,1.661-.5l1.708-1.139a2.987,2.987,0,0,0,1.321-2.2l.227-2.3a3.047,3.047,0,0,0,.744-.356l1.381-.921a2.992,2.992,0,0,0,1.278-3.086l-.164-.813L45.5,29.6a3.6,3.6,0,0,0,.375-4.031l-2.2-4.048,2.843-1.757A5.288,5.288,0,0,0,41.475,10.5ZM15.753,18.823c-.005-.05-.023-.1-.023-.152a1.661,1.661,0,0,1,.391-1.066,1.77,1.77,0,0,1,2.137-.382.338.338,0,0,1,.192.3.328.328,0,0,1-.039.163l-1.132,2.082Zm18.9,24.87L32.95,44.831A1,1,0,0,1,32.4,45H27.6a1,1,0,0,1-.551-.168l-1.708-1.139a1,1,0,0,1-.441-.734L24.709,41H27a3.994,3.994,0,0,0,3-1.357A3.994,3.994,0,0,0,33,41h2.291L35.1,42.959A1,1,0,0,1,34.657,43.693ZM30,32.7l-2.948-2.456a.119.119,0,0,1-.041-.152.121.121,0,0,1,.13-.091h5.718a.121.121,0,0,1,.13.091.119.119,0,0,1-.041.152ZM41.586,17.678a.32.32,0,0,1-.036-.157.337.337,0,0,1,.187-.3,1.775,1.775,0,0,1,2.145.384,1.655,1.655,0,0,1,.388,1.062c0,.049-.018.1-.023.152l-1.526.943Zm4.5-.118a3.72,3.72,0,0,0-.647-1.2,3.787,3.787,0,0,0-4.564-.938,2.339,2.339,0,0,0-1.046,3.22l4.292,7.893a1.632,1.632,0,0,1-.168,1.806l-3.909,4.8-.066-.33a1,1,0,1,0-1.96.392L38.5,35.6h0l.256,1.277a1,1,0,0,1-.426,1.028l-1.382.921A1,1,0,0,1,36.4,39H33a2,2,0,0,1-2-2V34.468l3.228-2.688A2.138,2.138,0,0,0,32.859,28H27.141a2.138,2.138,0,0,0-1.369,3.78L29,34.468V37a2,2,0,0,1-2,2H23.605a1,1,0,0,1-.554-.168l-1.382-.921a1,1,0,0,1-.426-1.027l.257-1.277V35.6l.48-2.405a1,1,0,1,0-1.96-.392l-.066.329-3.911-4.8a1.633,1.633,0,0,1-.164-1.808l4.287-7.884a2.338,2.338,0,0,0-1.048-3.227,3.786,3.786,0,0,0-4.556.936,3.722,3.722,0,0,0-.649,1.206,3.269,3.269,0,0,1-.473-3.9,3.293,3.293,0,0,1,4.234-1.349l11.9,5.6a1,1,0,0,0,.852,0l11.9-5.6a3.3,3.3,0,0,1,4.243,1.358A3.216,3.216,0,0,1,47,15.292,3.264,3.264,0,0,1,46.088,17.56Z"></path><path d="M39.107,21.062a4.765,4.765,0,0,0-7.092,3.492,1.83,1.83,0,0,0,.878,1.794,4.64,4.64,0,0,0,4.484.136,4.6,4.6,0,0,0,2.608-3.628A1.828,1.828,0,0,0,39.107,21.062Zm-2.615,3.629a2.6,2.6,0,0,1-2.475,0,2.773,2.773,0,0,1,3.966-1.964A2.607,2.607,0,0,1,36.492,24.691Z"></path><path d="M56.647,16.534a1.867,1.867,0,0,0,.078-2.076C54.637,11,48.863,3.493,39.149,5.635A9.413,9.413,0,0,1,39.4,4.7a1.893,1.893,0,0,0-2.359-2.379A11.07,11.07,0,0,0,33.5,4.2a15.509,15.509,0,0,0-1.623-3.169h0a2.233,2.233,0,0,0-3.757,0A15.509,15.509,0,0,0,26.5,4.2a11.08,11.08,0,0,0-3.534-1.871A1.892,1.892,0,0,0,20.606,4.7c.1.317.182.629.245.93C11.13,3.5,5.363,11,3.275,14.458a1.867,1.867,0,0,0,.078,2.076,1.905,1.905,0,0,0,1.943.752c.157-.034.313-.064.466-.091C4.511,19.272,3,23.186,3,29.984a36.156,36.156,0,0,0,2.1,12.2,1.876,1.876,0,0,0,1.751,1.225A1.9,1.9,0,0,0,8.646,42.2q.214-.546.445-1.032a18.687,18.687,0,0,0,7.18,12.82,1.933,1.933,0,0,0,1.675.333,1.843,1.843,0,0,0,1.239-1.089,2.462,2.462,0,0,1,.531-.814c1.365,2.029,5.02,6.72,10.12,7.569a.968.968,0,0,0,.328,0c5.1-.849,8.756-5.54,10.12-7.569a2.468,2.468,0,0,1,.531.813,1.842,1.842,0,0,0,1.239,1.09,1.929,1.929,0,0,0,1.675-.333,18.687,18.687,0,0,0,7.18-12.82q.229.486.445,1.031a1.891,1.891,0,0,0,1.772,1.209h.016a1.876,1.876,0,0,0,1.751-1.225,36.156,36.156,0,0,0,2.1-12.2c0-6.8-1.508-10.712-2.759-12.789.153.027.309.057.466.091A1.91,1.91,0,0,0,56.647,16.534Zm-5.259.235C51.423,16.8,55,19.751,55,29.984a34.243,34.243,0,0,1-1.881,11.235,11.958,11.958,0,0,0-2.411-3.937,1,1,0,0,0-1.7.808,17.279,17.279,0,0,1-6.386,14.266A4.543,4.543,0,0,0,40.446,50.1a1,1,0,0,0-1.315.4c-.038.065-3.76,6.474-9.131,7.484-5.371-1.01-9.093-7.419-9.131-7.484A1,1,0,0,0,20,50a.988.988,0,0,0-.446.106A4.544,4.544,0,0,0,17.4,52.328,17.251,17.251,0,0,1,11,38.09a1,1,0,0,0-1.7-.808,11.958,11.958,0,0,0-2.411,3.937A34.238,34.238,0,0,1,5,29.984C5,19.751,8.577,16.8,8.6,16.777a1,1,0,0,0-.6-1.8,16.488,16.488,0,0,0-2.886.3c2.478-4.009,7.831-10.049,16.591-7.353A1,1,0,0,0,23,6.972,9.4,9.4,0,0,0,22.573,4.3a9.624,9.624,0,0,1,3.72,2.38,1,1,0,0,0,1.677-.465A12.791,12.791,0,0,1,29.8,2.107a.211.211,0,0,1,.392,0A12.779,12.779,0,0,1,32.03,6.214a1,1,0,0,0,1.677.465,9.624,9.624,0,0,1,3.72-2.38A9.411,9.411,0,0,0,37,6.972a1,1,0,0,0,1.294.956c8.758-2.7,14.114,3.343,16.591,7.353a16.488,16.488,0,0,0-2.886-.3.994.994,0,0,0-.938.675A1.007,1.007,0,0,0,51.388,16.769Z"></path></svg>
