<svg height="448pt" viewBox="0 0 448 448" width="448pt" xmlns="http://www.w3.org/2000/svg" id="fi_1241011"><path d="m293.332031 213.332031c-26.507812 0-48-21.488281-48-48 0-26.507812 21.492188-48 48-48 26.511719 0 48 21.492188 48 48 0 26.511719-21.488281 48-48 48zm0-74.664062c-14.726562 0-26.664062 11.9375-26.664062 26.664062 0 14.730469 11.9375 26.667969 26.664062 26.667969 14.730469 0 26.667969-11.9375 26.667969-26.667969 0-14.726562-11.9375-26.664062-26.667969-26.664062zm0 0"></path><path d="m224 448c-101.019531-.171875-189.453125-67.863281-216-165.332031l-5.199219-19.203125 103.734375 34.535156v7.464844c.519532 22.28125 13.617188 42.339844 33.804688 51.777344 20.191406 9.4375 43.984375 6.621093 61.410156-7.269532s25.480469-36.453125 20.785156-58.238281l-1.335937-6.402344 62.800781-51.332031 4.265625.265625 5.066406.269531c29.402344.292969 55.855469-17.820312 66.210938-45.335937 10.359375-27.519531 2.417969-58.578125-19.878907-77.746094-22.296874-19.164063-54.195312-22.355469-79.847656-7.984375-25.648437 14.371094-39.585937 43.242188-34.882812 72.265625l.667968 4.132813-46.136718 66.667968-6.398438-.800781c-19.414062-2.351563-38.75 4.972656-51.734375 19.597656l-4.664062 5.335938-116.667969-38.933594v-7.734375c0-123.464844 100.535156-224 224-224s224 100.535156 224 224-100.535156 224-224 224zm-188.933594-151.332031c30.109375 78.175781 105.160156 129.816406 188.933594 130 111.734375 0 202.667969-90.933594 202.667969-202.667969s-90.933594-202.667969-202.667969-202.667969c-109.199219 0-198.535156 86.800781-202.535156 195.066407l88.933594 29.601562c15.789062-15.015625 37.035156-22.917969 58.800781-21.867188l34.132812-49.332031c-.355469-3.144531-.53125-6.304687-.53125-9.46875 0-50.074219 40.59375-90.664062 90.664063-90.664062 50.074218 0 90.667968 40.589843 90.667968 90.664062s-40.59375 90.667969-90.667968 90.667969h-2.265625l-46.398438 37.867188c.4375 3.359374.660157 6.746093.664063 10.132812-.292969 42.074219-33.125 76.726562-75.117188 79.292969-41.996094 2.566406-78.800781-27.835938-84.214844-69.558594zm0 0"></path><path d="m165.332031 341.332031c-7.027343 0-13.914062-1.988281-19.867187-5.730469l11.335937-18.136718c6.304688 3.863281 14.4375 2.898437 19.667969-2.332032 5.226562-5.226562 6.191406-13.359374 2.332031-19.667968l18.132813-11.332032c7.230468 11.503907 7.640625 26.027344 1.070312 37.921876-6.570312 11.890624-19.082031 19.277343-32.671875 19.277343zm0 0"></path></svg>
