<svg id="fi_5576886" height="512" viewBox="0 0 24 24" width="512" xmlns="http://www.w3.org/2000/svg" data-name="Layer 1"><path d="m20 3.5h-16a2.50263 2.50263 0 0 0 -2.5 2.5v12a2.50263 2.50263 0 0 0 2.5 2.5h16a2.50263 2.50263 0 0 0 2.5-2.5v-12a2.50263 2.50263 0 0 0 -2.5-2.5zm1.5 14.5a1.50164 1.50164 0 0 1 -1.5 1.5h-16a1.50164 1.50164 0 0 1 -1.5-1.5v-12a1.50164 1.50164 0 0 1 1.5-1.5h16a1.50164 1.50164 0 0 1 1.5 1.5zm-11.14648-6.35352a.49983.49983 0 0 1 0 .707l-4 4a.5.5 0 0 1 -.707-.707l3.64648-3.64648-3.64652-3.64648a.5.5 0 0 1 .707-.707zm8.14648 4.35352a.49971.49971 0 0 1 -.5.5h-6a.5.5 0 0 1 0-1h6a.49971.49971 0 0 1 .5.5z"></path></svg>
